<svg width="489" height="45" viewBox="0 0 489 45" fill="none" xmlns="http://www.w3.org/2000/svg">
<path d="M120.381 23.6797L131.561 27.7227V32.4863L116.373 26.0527V22.6777L120.381 23.6797ZM131.561 20.375L120.363 24.4883L116.373 25.4375V22.0625L131.561 15.6289V20.375ZM136.061 9.40625H145.605C147.562 9.40625 149.244 9.69922 150.65 10.2852C152.068 10.8711 153.158 11.7383 153.92 12.8867C154.682 14.0352 155.062 15.4473 155.062 17.123C155.062 18.4941 154.828 19.6719 154.359 20.6562C153.902 21.6289 153.252 22.4434 152.408 23.0996C151.576 23.7441 150.598 24.2598 149.473 24.6465L147.803 25.5254H139.506L139.471 21.4121H145.641C146.566 21.4121 147.334 21.248 147.943 20.9199C148.553 20.5918 149.01 20.1348 149.314 19.5488C149.631 18.9629 149.789 18.2832 149.789 17.5098C149.789 16.6895 149.637 15.9805 149.332 15.3828C149.027 14.7852 148.564 14.3281 147.943 14.0117C147.322 13.6953 146.543 13.5371 145.605 13.5371H141.334V35H136.061V9.40625ZM150.369 35L144.533 23.5918L150.105 23.5566L156.012 34.7539V35H150.369ZM167.561 35.3516C166.084 35.3516 164.76 35.1172 163.588 34.6484C162.416 34.168 161.42 33.5059 160.6 32.6621C159.791 31.8184 159.17 30.8398 158.736 29.7266C158.303 28.6016 158.086 27.4062 158.086 26.1406V25.4375C158.086 23.9961 158.291 22.6777 158.701 21.4824C159.111 20.2871 159.697 19.25 160.459 18.3711C161.232 17.4922 162.17 16.8184 163.271 16.3496C164.373 15.8691 165.615 15.6289 166.998 15.6289C168.346 15.6289 169.541 15.8516 170.584 16.2969C171.627 16.7422 172.5 17.375 173.203 18.1953C173.918 19.0156 174.457 20 174.82 21.1484C175.184 22.2852 175.365 23.5508 175.365 24.9453V27.0547H160.248V23.6797H170.391V23.293C170.391 22.5898 170.262 21.9629 170.004 21.4121C169.758 20.8496 169.383 20.4043 168.879 20.0762C168.375 19.748 167.73 19.584 166.945 19.584C166.277 19.584 165.703 19.7305 165.223 20.0234C164.742 20.3164 164.35 20.7266 164.045 21.2539C163.752 21.7812 163.529 22.4023 163.377 23.1172C163.236 23.8203 163.166 24.5938 163.166 25.4375V26.1406C163.166 26.9023 163.271 27.6055 163.482 28.25C163.705 28.8945 164.016 29.4512 164.414 29.9199C164.824 30.3887 165.316 30.752 165.891 31.0098C166.477 31.2676 167.139 31.3965 167.877 31.3965C168.791 31.3965 169.641 31.2207 170.426 30.8691C171.223 30.5059 171.908 29.9609 172.482 29.2344L174.943 31.9062C174.545 32.4805 174 33.0312 173.309 33.5586C172.629 34.0859 171.809 34.5195 170.848 34.8594C169.887 35.1875 168.791 35.3516 167.561 35.3516ZM186.105 31.3965C186.727 31.3965 187.277 31.2793 187.758 31.0449C188.238 30.7988 188.613 30.459 188.883 30.0254C189.164 29.5801 189.311 29.0586 189.322 28.4609H194.086C194.074 29.7969 193.717 30.9863 193.014 32.0293C192.311 33.0605 191.367 33.875 190.184 34.4727C189 35.0586 187.676 35.3516 186.211 35.3516C184.734 35.3516 183.445 35.1055 182.344 34.6133C181.254 34.1211 180.346 33.4414 179.619 32.5742C178.893 31.6953 178.348 30.6758 177.984 29.5156C177.621 28.3438 177.439 27.0898 177.439 25.7539V25.2441C177.439 23.8965 177.621 22.6426 177.984 21.4824C178.348 20.3105 178.893 19.291 179.619 18.4238C180.346 17.5449 181.254 16.8594 182.344 16.3672C183.434 15.875 184.711 15.6289 186.176 15.6289C187.734 15.6289 189.1 15.9277 190.271 16.5254C191.455 17.123 192.381 17.9785 193.049 19.0918C193.729 20.1934 194.074 21.5 194.086 23.0117H189.322C189.311 22.3789 189.176 21.8047 188.918 21.2891C188.672 20.7734 188.309 20.3633 187.828 20.0586C187.359 19.7422 186.779 19.584 186.088 19.584C185.35 19.584 184.746 19.7422 184.277 20.0586C183.809 20.3633 183.445 20.7852 183.188 21.3242C182.93 21.8516 182.748 22.4551 182.643 23.1348C182.549 23.8027 182.502 24.5059 182.502 25.2441V25.7539C182.502 26.4922 182.549 27.2012 182.643 27.8809C182.736 28.5605 182.912 29.1641 183.17 29.6914C183.439 30.2188 183.809 30.6348 184.277 30.9395C184.746 31.2441 185.355 31.3965 186.105 31.3965ZM196.213 25.6836V25.3145C196.213 23.9199 196.412 22.6367 196.811 21.4648C197.209 20.2812 197.789 19.2559 198.551 18.3887C199.312 17.5215 200.25 16.8477 201.363 16.3672C202.477 15.875 203.754 15.6289 205.195 15.6289C206.637 15.6289 207.92 15.875 209.045 16.3672C210.17 16.8477 211.113 17.5215 211.875 18.3887C212.648 19.2559 213.234 20.2812 213.633 21.4648C214.031 22.6367 214.23 23.9199 214.23 25.3145V25.6836C214.23 27.0664 214.031 28.3496 213.633 29.5332C213.234 30.7051 212.648 31.7305 211.875 32.6094C211.113 33.4766 210.176 34.1504 209.062 34.6309C207.949 35.1113 206.672 35.3516 205.23 35.3516C203.789 35.3516 202.506 35.1113 201.381 34.6309C200.268 34.1504 199.324 33.4766 198.551 32.6094C197.789 31.7305 197.209 30.7051 196.811 29.5332C196.412 28.3496 196.213 27.0664 196.213 25.6836ZM201.275 25.3145V25.6836C201.275 26.4805 201.346 27.2246 201.486 27.916C201.627 28.6074 201.85 29.2168 202.154 29.7441C202.471 30.2598 202.881 30.6641 203.385 30.957C203.889 31.25 204.504 31.3965 205.23 31.3965C205.934 31.3965 206.537 31.25 207.041 30.957C207.545 30.6641 207.949 30.2598 208.254 29.7441C208.559 29.2168 208.781 28.6074 208.922 27.916C209.074 27.2246 209.15 26.4805 209.15 25.6836V25.3145C209.15 24.541 209.074 23.8145 208.922 23.1348C208.781 22.4434 208.553 21.834 208.236 21.3066C207.932 20.7676 207.527 20.3457 207.023 20.041C206.52 19.7363 205.91 19.584 205.195 19.584C204.48 19.584 203.871 19.7363 203.367 20.041C202.875 20.3457 202.471 20.7676 202.154 21.3066C201.85 21.834 201.627 22.4434 201.486 23.1348C201.346 23.8145 201.275 24.541 201.275 25.3145ZM354.521 9.40625L345.135 37.1973H341.373L350.76 9.40625H354.521ZM368.338 24.3828L357.07 20.3574V15.6289L372.381 22.0625V25.4551L368.338 24.3828ZM357.07 27.7578L368.355 23.6445L372.381 22.6777V26.0527L357.07 32.4863V27.7578Z" fill="white"/>
<path d="M220.066 9.40625H224.531L231.105 28.1973L237.68 9.40625H242.145L232.898 35H229.312L220.066 9.40625ZM217.658 9.40625H222.105L222.914 27.7227V35H217.658V9.40625ZM240.105 9.40625H244.57V35H239.297V27.7227L240.105 9.40625ZM248.068 25.6836V25.3145C248.068 23.9199 248.268 22.6367 248.666 21.4648C249.064 20.2812 249.645 19.2559 250.406 18.3887C251.168 17.5215 252.105 16.8477 253.219 16.3672C254.332 15.875 255.609 15.6289 257.051 15.6289C258.492 15.6289 259.775 15.875 260.9 16.3672C262.025 16.8477 262.969 17.5215 263.73 18.3887C264.504 19.2559 265.09 20.2812 265.488 21.4648C265.887 22.6367 266.086 23.9199 266.086 25.3145V25.6836C266.086 27.0664 265.887 28.3496 265.488 29.5332C265.09 30.7051 264.504 31.7305 263.73 32.6094C262.969 33.4766 262.031 34.1504 260.918 34.6309C259.805 35.1113 258.527 35.3516 257.086 35.3516C255.645 35.3516 254.361 35.1113 253.236 34.6309C252.123 34.1504 251.18 33.4766 250.406 32.6094C249.645 31.7305 249.064 30.7051 248.666 29.5332C248.268 28.3496 248.068 27.0664 248.068 25.6836ZM253.131 25.3145V25.6836C253.131 26.4805 253.201 27.2246 253.342 27.916C253.482 28.6074 253.705 29.2168 254.01 29.7441C254.326 30.2598 254.736 30.6641 255.24 30.957C255.744 31.25 256.359 31.3965 257.086 31.3965C257.789 31.3965 258.393 31.25 258.896 30.957C259.4 30.6641 259.805 30.2598 260.109 29.7441C260.414 29.2168 260.637 28.6074 260.777 27.916C260.93 27.2246 261.006 26.4805 261.006 25.6836V25.3145C261.006 24.541 260.93 23.8145 260.777 23.1348C260.637 22.4434 260.408 21.834 260.092 21.3066C259.787 20.7676 259.383 20.3457 258.879 20.041C258.375 19.7363 257.766 19.584 257.051 19.584C256.336 19.584 255.727 19.7363 255.223 20.041C254.73 20.3457 254.326 20.7676 254.01 21.3066C253.705 21.834 253.482 22.4434 253.342 23.1348C253.201 23.8145 253.131 24.541 253.131 25.3145ZM275.385 31.3086L279.604 15.9805H284.895L278.479 35H275.279L275.385 31.3086ZM272.484 15.9805L276.721 31.3262L276.809 35H273.592L267.176 15.9805H272.484ZM292.506 15.9805V35H287.426V15.9805H292.506ZM287.109 11.0234C287.109 10.2852 287.367 9.67578 287.883 9.19531C288.398 8.71484 289.09 8.47461 289.957 8.47461C290.812 8.47461 291.498 8.71484 292.014 9.19531C292.541 9.67578 292.805 10.2852 292.805 11.0234C292.805 11.7617 292.541 12.3711 292.014 12.8516C291.498 13.332 290.812 13.5723 289.957 13.5723C289.09 13.5723 288.398 13.332 287.883 12.8516C287.367 12.3711 287.109 11.7617 287.109 11.0234ZM305.443 35.3516C303.967 35.3516 302.643 35.1172 301.471 34.6484C300.299 34.168 299.303 33.5059 298.482 32.6621C297.674 31.8184 297.053 30.8398 296.619 29.7266C296.186 28.6016 295.969 27.4062 295.969 26.1406V25.4375C295.969 23.9961 296.174 22.6777 296.584 21.4824C296.994 20.2871 297.58 19.25 298.342 18.3711C299.115 17.4922 300.053 16.8184 301.154 16.3496C302.256 15.8691 303.498 15.6289 304.881 15.6289C306.229 15.6289 307.424 15.8516 308.467 16.2969C309.51 16.7422 310.383 17.375 311.086 18.1953C311.801 19.0156 312.34 20 312.703 21.1484C313.066 22.2852 313.248 23.5508 313.248 24.9453V27.0547H298.131V23.6797H308.273V23.293C308.273 22.5898 308.145 21.9629 307.887 21.4121C307.641 20.8496 307.266 20.4043 306.762 20.0762C306.258 19.748 305.613 19.584 304.828 19.584C304.16 19.584 303.586 19.7305 303.105 20.0234C302.625 20.3164 302.232 20.7266 301.928 21.2539C301.635 21.7812 301.412 22.4023 301.26 23.1172C301.119 23.8203 301.049 24.5938 301.049 25.4375V26.1406C301.049 26.9023 301.154 27.6055 301.365 28.25C301.588 28.8945 301.898 29.4512 302.297 29.9199C302.707 30.3887 303.199 30.752 303.773 31.0098C304.359 31.2676 305.021 31.3965 305.76 31.3965C306.674 31.3965 307.523 31.2207 308.309 30.8691C309.105 30.5059 309.791 29.9609 310.365 29.2344L312.826 31.9062C312.428 32.4805 311.883 33.0312 311.191 33.5586C310.512 34.0859 309.691 34.5195 308.73 34.8594C307.77 35.1875 306.674 35.3516 305.443 35.3516ZM326.414 29.7441C326.414 29.3809 326.309 29.0527 326.098 28.7598C325.887 28.4668 325.494 28.1973 324.92 27.9512C324.357 27.6934 323.543 27.459 322.477 27.248C321.516 27.0371 320.619 26.7734 319.787 26.457C318.967 26.1289 318.252 25.7363 317.643 25.2793C317.045 24.8223 316.576 24.2832 316.236 23.6621C315.896 23.0293 315.727 22.3086 315.727 21.5C315.727 20.7031 315.896 19.9531 316.236 19.25C316.588 18.5469 317.086 17.9258 317.73 17.3867C318.387 16.8359 319.184 16.4082 320.121 16.1035C321.07 15.7871 322.137 15.6289 323.32 15.6289C324.973 15.6289 326.391 15.8926 327.574 16.4199C328.77 16.9473 329.684 17.6738 330.316 18.5996C330.961 19.5137 331.283 20.5566 331.283 21.7285H326.221C326.221 21.2363 326.115 20.7969 325.904 20.4102C325.705 20.0117 325.389 19.7012 324.955 19.4785C324.533 19.2441 323.982 19.127 323.303 19.127C322.74 19.127 322.254 19.2266 321.844 19.4258C321.434 19.6133 321.117 19.8711 320.895 20.1992C320.684 20.5156 320.578 20.8672 320.578 21.2539C320.578 21.5469 320.637 21.8105 320.754 22.0449C320.883 22.2676 321.088 22.4727 321.369 22.6602C321.65 22.8477 322.014 23.0234 322.459 23.1875C322.916 23.3398 323.479 23.4805 324.146 23.6094C325.518 23.8906 326.742 24.2598 327.82 24.7168C328.898 25.1621 329.754 25.7715 330.387 26.5449C331.02 27.3066 331.336 28.3086 331.336 29.5508C331.336 30.3945 331.148 31.168 330.773 31.8711C330.398 32.5742 329.859 33.1895 329.156 33.7168C328.453 34.2324 327.609 34.6367 326.625 34.9297C325.652 35.2109 324.557 35.3516 323.338 35.3516C321.568 35.3516 320.068 35.0352 318.838 34.4023C317.619 33.7695 316.693 32.9668 316.061 31.9941C315.439 31.0098 315.129 30.002 315.129 28.9707H319.928C319.951 29.6621 320.127 30.2188 320.455 30.6406C320.795 31.0625 321.223 31.3672 321.738 31.5547C322.266 31.7422 322.834 31.8359 323.443 31.8359C324.1 31.8359 324.645 31.748 325.078 31.5723C325.512 31.3848 325.84 31.1387 326.062 30.834C326.297 30.5176 326.414 30.1543 326.414 29.7441Z" fill="#4CD5EB"/>
</svg>
